# xmcd
#
# Track frame offsets:
#	150
#	9197
#	26829
#	48111
#	64185
#	80719
#	88138
#	88663
#	105120
#	105645
#	123277
#	144560
#	160636
#	177170
#
# Disc length: 2551 seconds
#
# Revision: 0
# Processed by: cddbd v1.5.2PL0 Copyright (c) Steve Scherf et al.
# Submitted via: audiograbber 1.83.01
#
DISCID=a409f50e
DTITLE=Mue - Remuexed
DYEAR=2008
DGENRE=Hip-Hop
TTITLE0=Mue - Sonnenanbeter
TTITLE1=Lea-Won - Finstere Zeiten (D+B Remuex)
TTITLE2=Mue feat. Optimus Rhyme, T-Style, Ari and Phibi - Traumtanz (Traumgleich 
TTITLE2=Remuex)
TTITLE3=Abe and Ari - Street Wisdom (Reverse Remuex)
TTITLE4=Abe - Nachtgedanken (Lila Flow Remuex)
TTITLE5=Mue - Monduntergang
TTITLE6=Mue - Ruhe vor dem Sturm
TTITLE7=Versbox - Freibeuter (Temposünder Remuex)
TTITLE8=Mue - Ruhe nach dem Sturm
TTITLE9=Mue - Finstere Zeiten (D+B Remuex Instrumental)
TTITLE10=Mue - Traumtanz (Traumgleich Remuex Instrumental)
TTITLE11=Mue - Street Wisdom (Reverse Remuex Instrumental)
TTITLE12=Mue - Nachtgedanken (Lila Flow Remuex Instrumental)
TTITLE13=Mue - Freibeuter (Temposünder Remuex Instrumental)
EXTD=Producer and DJ Mue from Nuremberg (Germany) remixed some German undergrou
EXTD=nd Hip Hop Tracks. EP contains these Remixes plus instrumentals.\nFor more
EXTD=information: http://www.muesik.de
EXTT0=
EXTT1=
EXTT2=
EXTT3=
EXTT4=
EXTT5=
EXTT6=
EXTT7=
EXTT8=
EXTT9=
EXTT10=
EXTT11=
EXTT12=
EXTT13=
PLAYORDER=
